<?xml version="1.0" encoding="utf-8"?>
<!-- Generator: Adobe Illustrator 19.1.0, SVG Export Plug-In . SVG Version: 6.00 Build 0)  -->
<!DOCTYPE svg PUBLIC "-//W3C//DTD SVG 1.1//EN" "http://www.w3.org/Graphics/SVG/1.1/DTD/svg11.dtd">
<svg version="1.1" id="Artwork" xmlns="http://www.w3.org/2000/svg" xmlns:xlink="http://www.w3.org/1999/xlink" x="0px" y="0px"
	 viewBox="0 0 234.1 39" style="enable-background:new 0 0 234.1 39;" xml:space="preserve">
<style type="text/css">
	.st0{fill:#FFFFFF;}
</style>
<g>
	<path class="st0" d="M90.8,38.3h-7.5V0.7h7.5V38.3z"/>
	<path class="st0" d="M111.6,31.4h17.5v6.9H99.6L117,7.6H99.6V0.7h29.4L111.6,31.4z"/>
	<path class="st0" d="M199,38.3h-25V0.7h7.5v30.6H199V38.3z"/>
	<path class="st0" d="M219.9,23.5v14.8h-7.5V23.4L197.9,0.7h8.8l9.5,15.9l9.5-15.9h8.5L219.9,23.5z"/>
	<path class="st0" d="M64.4,24.8l0.8-0.2c6.8-1.4,9.2-7,9.2-11.8c0-6-3.8-12.1-12.3-12.1H46.8v37.6H54V25.5v-0.5h0.5h1.9h0.3
		l0.2,0.2l8.5,13.1h8.6l-9-12.9L64.4,24.8z M54.5,18.8H54v-0.5V7.4V6.9h0.5h7.2c3.2,0,5.2,3,5.2,6s-2,6-5.4,6H54.5z"/>
	<path class="st0" d="M147.7,31.4h17.5v6.9h-29.5l17.5-30.7h-17.4V0.7h29.4L147.7,31.4z"/>
	<path class="st0" d="M38,18.8H20.6v0h0V25h9.2c-1.3,4.5-4.7,7-10.4,7C13,32,7.8,27.2,7.8,19.5c0-7.3,5-12.4,11.9-12.4
		c3.8,0,7,1.5,9.1,3.9l5.4-5.3C30.8,2.1,25.8,0,19.8,0C8.3,0,0,8.1,0,19.5C0,31.6,9.2,39,19.7,39c10.7,0,18.4-8,18.4-19.4
		C38,19.3,38,19.1,38,18.8z"/>
</g>
</svg>
