<?xml version="1.0" encoding="utf-8"?>
<!-- Generator: Adobe Illustrator 19.1.0, SVG Export Plug-In . SVG Version: 6.00 Build 0)  -->
<!DOCTYPE svg PUBLIC "-//W3C//DTD SVG 1.1//EN" "http://www.w3.org/Graphics/SVG/1.1/DTD/svg11.dtd">
<svg version="1.1" id="Layer_1" xmlns="http://www.w3.org/2000/svg" xmlns:xlink="http://www.w3.org/1999/xlink" x="0px" y="0px"
	 viewBox="0 0 28.1 28" style="enable-background:new 0 0 28.1 28;" xml:space="preserve">
<style type="text/css">
	.st0{fill:#FFFFFF;}
</style>
<g>
	<g>
		<path class="st0" d="M27.8,14h-10c-0.1,0-0.2,0.1-0.3,0.2c-0.1,0.1,0,0.2,0,0.3l10,13.4c0.1,0.1,0.1,0.1,0.2,0.1c0,0,0.1,0,0.1,0
			c0.1,0,0.2-0.2,0.2-0.3V14.3C28.1,14.1,27.9,14,27.8,14z"/>
	</g>
	<path class="st0" d="M14,0.2C14,0.1,13.9,0,13.8,0C6.2,0.1,0,6.3,0,14s6.2,13.9,13.8,14c0.1,0,0.2-0.1,0.2-0.2V0.2z"/>
	<g>
		<path class="st0" d="M27.9,0h-6.6c-0.1,0-0.1,0-0.2,0.1c0,0.1,0,0.1,0,0.2l6.6,8.8c0,0.1,0.1,0.1,0.2,0.1c0,0,0,0,0.1,0
			c0.1,0,0.1-0.1,0.1-0.2V0.2C28.1,0.1,28,0,27.9,0z"/>
	</g>
</g>
</svg>
